<svg id="LOGO" xmlns="http://www.w3.org/2000/svg" width="89" height="89" viewBox="0 0 89 89">
  <circle id="Ellipse_2" data-name="Ellipse 2" cx="44.5" cy="44.5" r="44.5" fill="#fff"/>
  <g id="Logo_TransIT" data-name="Logo TransIT" transform="translate(5.769 5.263)">
    <g id="Group_7" data-name="Group 7" transform="translate(0 0)">
      <g id="Group_1" data-name="Group 1" transform="translate(0.976 46.787)">
        <path id="Path_1" data-name="Path 1" d="M155.207,733.11h16.226l2.717-5.031H153.669A37.852,37.852,0,0,0,155.207,733.11Z" transform="translate(-153.017 -727.427)" fill="#19275a"/>
        <path id="Path_2" data-name="Path 2" d="M167.585,729.914H151.359a.652.652,0,0,1-.609-.419,38.689,38.689,0,0,1-1.564-5.118.652.652,0,0,1,.635-.8H170.3a.652.652,0,0,1,.574.962l-2.716,5.031A.652.652,0,0,1,167.585,729.914Zm-15.775-1.3H167.2l2.012-3.728H150.65A37.513,37.513,0,0,0,151.81,728.61Z" transform="translate(-149.169 -723.579)" fill="#192759"/>
      </g>
      <g id="Group_2" data-name="Group 2" transform="translate(4.478 56.125)">
        <path id="Path_3" data-name="Path 3" d="M177.847,792.539a38.3,38.3,0,0,0,7.042,9.372l.567-1.357,4.328-8.016Z" transform="translate(-177.195 -791.887)" fill="#19275a"/>
        <path id="Path_4" data-name="Path 4" d="M181.04,798.715a.652.652,0,0,1-.455-.185A38.892,38.892,0,0,1,173.423,789a.652.652,0,0,1,.575-.959h11.936a.652.652,0,0,1,.574.962l-4.313,7.987-.554,1.327a.651.651,0,0,1-.471.387A.637.637,0,0,1,181.04,798.715Zm-5.936-9.373a37.583,37.583,0,0,0,5.71,7.572l.192-.459c.008-.02.018-.04.028-.059l3.809-7.054Z" transform="translate(-173.346 -788.039)" fill="#192759"/>
      </g>
      <g id="Group_3" data-name="Group 3" transform="translate(9.208)">
        <path id="Path_5" data-name="Path 5" d="M268.428,418.419a38.17,38.17,0,0,0-57.931,0Z" transform="translate(-209.845 -404.455)" fill="#19275a"/>
        <path id="Path_6" data-name="Path 6" d="M264.58,415.222H206.649a.652.652,0,0,1-.495-1.077,38.821,38.821,0,0,1,58.92,0,.652.652,0,0,1-.494,1.077Zm-56.476-1.3h55.02a37.516,37.516,0,0,0-55.02,0Z" transform="translate(-205.997 -400.606)" fill="#192759"/>
      </g>
      <g id="Group_4" data-name="Group 4" transform="translate(23.889 28.973)">
        <path id="Path_7" data-name="Path 7" d="M336.647,605.107l-24.8,44.609a38.195,38.195,0,0,0,51.338-44.609Z" transform="translate(-311.191 -604.455)" fill="#19275a"/>
        <path id="Path_8" data-name="Path 8" d="M322.279,649.284a38.621,38.621,0,0,1-14.528-2.812.652.652,0,0,1-.326-.921l24.8-44.609a.652.652,0,0,1,.57-.335h26.534a.652.652,0,0,1,.633.5,38.988,38.988,0,0,1,1.138,9.357,38.825,38.825,0,0,1-38.825,38.825Zm-13.352-3.752A37.543,37.543,0,0,0,358.82,601.91H333.183Z" transform="translate(-307.343 -600.606)" fill="#192759"/>
      </g>
      <g id="Group_5" data-name="Group 5" transform="translate(0 37.484)">
        <path id="Path_9" data-name="Path 9" d="M146.932,664.552a38.544,38.544,0,0,0,.243,4.307h23.539l2.7-5H146.94C146.935,664.092,146.932,664.322,146.932,664.552Z" transform="translate(-146.28 -663.211)" fill="#19275a"/>
        <path id="Path_10" data-name="Path 10" d="M166.867,665.663H143.328a.652.652,0,0,1-.648-.579,39.4,39.4,0,0,1-.247-4.38c0-.234,0-.467.008-.7a.652.652,0,0,1,.652-.64h26.472a.652.652,0,0,1,.574.962l-2.7,5A.652.652,0,0,1,166.867,665.663Zm-22.951-1.3h22.563l1.993-3.692H143.737v.037C143.737,661.91,143.8,663.136,143.915,664.359Z" transform="translate(-142.433 -659.363)" fill="#192759"/>
      </g>
      <g id="Group_6" data-name="Group 6" transform="translate(0.324 28.973)">
        <path id="Path_11" data-name="Path 11" d="M149.963,605.107a38.024,38.024,0,0,0-.794,4.2H177.65l2.27-4.2Z" transform="translate(-148.517 -604.455)" fill="#19275a"/>
        <path id="Path_12" data-name="Path 12" d="M173.8,606.115H145.322a.652.652,0,0,1-.646-.736,38.8,38.8,0,0,1,.807-4.277.652.652,0,0,1,.633-.5h29.958a.652.652,0,0,1,.574.962l-2.27,4.2A.651.651,0,0,1,173.8,606.115Zm-27.73-1.3h27.342l1.567-2.9H146.629C146.405,602.87,146.219,603.842,146.072,604.811Z" transform="translate(-144.67 -600.606)" fill="#192759"/>
      </g>
    </g>
    <text id="TransIT" transform="translate(41.94 54.374)" fill="#fff" font-size="7" font-family="SegoeUI, Segoe UI"><tspan x="0" y="0">TransIT</tspan></text>
  </g>
</svg>
